<?xml version="1.0" standalone="no"?>
<!DOCTYPE svg PUBLIC "-//W3C//DTD SVG 20010904//EN"
 "http://www.w3.org/TR/2001/REC-SVG-20010904/DTD/svg10.dtd">
<svg version="1.0" xmlns="http://www.w3.org/2000/svg"
 width="700.000000pt" height="700.000000pt" viewBox="0 0 700.000000 700.000000"
 preserveAspectRatio="xMidYMid meet">
<metadata>
Created by potrace 1.14, written by Peter Selinger 2001-2017
</metadata>
<g transform="translate(0.000000,700.000000) scale(0.100000,-0.100000)"
fill="#000000" stroke="none">
<path d="M1095 5241 c-105 -26 -190 -116 -213 -226 -8 -43 -8 -3006 1 -3041
21 -83 78 -153 159 -196 l43 -23 1835 0 1835 0 45 29 c66 42 99 75 128 131
l27 50 2 545 c1 300 2 546 3 548 0 2 261 -257 580 -577 319 -319 581 -579 581
-578 2 3 4 3197 2 3197 -1 0 -263 -261 -583 -581 -510 -510 -580 -577 -580
-552 -1 15 -2 262 -3 548 l-2 520 -27 51 c-33 63 -100 123 -163 146 -44 17
-160 18 -1844 17 -988 -1 -1809 -4 -1826 -8z"/>
</g>
</svg>
