<svg width="318" height="116" viewBox="0 0 318 116" fill="none" xmlns="http://www.w3.org/2000/svg">
<path d="M57.855 112.71C57.855 114.367 56.5108 115.718 54.8562 115.632C44.4664 115.093 34.3937 111.76 25.7125 105.96C16.1983 99.6025 8.78286 90.5668 4.40395 79.9951C0.0250406 69.4235 -1.12068 57.7908 1.11167 46.568C3.34402 35.3453 8.85417 25.0365 16.9453 16.9453C25.0365 8.85417 35.3453 3.34401 46.5681 1.11167C57.7908 -1.12068 69.4235 0.0250432 79.9952 4.40395C90.5668 8.78286 99.6025 16.1983 105.96 25.7125C111.76 34.3937 115.093 44.4664 115.632 54.8562C115.718 56.5108 114.367 57.855 112.71 57.855L60.855 57.855C59.1981 57.855 57.855 59.1981 57.855 60.855L57.855 112.71Z" fill="#EE4266"/>
<path d="M129.183 3C129.183 1.34315 130.527 -0.00811795 132.182 0.077699C146.434 0.816865 159.952 6.80437 170.093 16.9453C180.943 27.7953 187.038 42.5109 187.038 57.855C187.038 73.1991 180.943 87.9147 170.093 98.7647C159.952 108.906 146.434 114.893 132.182 115.632C130.527 115.718 129.183 114.367 129.183 112.71L129.183 57.855V3Z" fill="#F2D23F"/>
<path d="M314.014 57.855C315.671 57.855 317.022 59.1992 316.936 60.8539C316.197 75.1057 310.209 88.6237 300.068 98.7647C289.218 109.615 274.503 115.71 259.159 115.71C243.815 115.71 229.099 109.615 218.249 98.7647C208.108 88.6237 202.121 75.1057 201.381 60.8539C201.296 59.1992 202.647 57.855 204.304 57.855L259.159 57.855H314.014Z" fill="#00FFAA"/>
</svg>
