<?xml version="1.0" standalone="no"?>
<!DOCTYPE svg PUBLIC "-//W3C//DTD SVG 20010904//EN"
 "http://www.w3.org/TR/2001/REC-SVG-20010904/DTD/svg10.dtd">
<svg version="1.0" xmlns="http://www.w3.org/2000/svg"
 width="2544.000000pt" height="2544.000000pt" viewBox="0 0 2544.000000 2544.000000"
 preserveAspectRatio="xMidYMid meet">
<metadata>
Created by potrace 1.14, written by Peter Selinger 2001-2017
</metadata>
<g transform="translate(0.000000,2544.000000) scale(0.100000,-0.100000)"
fill="#000000" stroke="none">
<path d="M4378 17355 c-1 -2 -41 -6 -88 -9 -47 -3 -103 -8 -125 -10 -108 -12
-172 -18 -190 -20 -11 -1 -24 -4 -30 -7 -5 -4 -22 -6 -37 -5 -16 1 -28 -2 -28
-7 0 -4 -4 -6 -8 -3 -4 3 -26 1 -48 -5 -21 -5 -55 -11 -74 -14 -48 -7 -68 -11
-120 -25 -25 -7 -54 -13 -65 -15 -37 -4 -259 -66 -348 -96 -49 -17 -98 -32
-110 -35 -12 -2 -23 -8 -25 -14 -2 -6 -8 -8 -13 -5 -4 3 -29 -3 -53 -15 -25
-11 -47 -20 -50 -20 -2 0 -17 -5 -33 -12 -15 -6 -32 -12 -38 -13 -5 -2 -41
-17 -80 -35 -89 -41 -116 -52 -135 -56 -8 -2 -16 -8 -18 -14 -2 -5 -8 -8 -13
-4 -5 3 -9 0 -9 -5 0 -6 -6 -11 -14 -11 -17 0 -139 -62 -144 -72 -2 -5 -12 -8
-23 -8 -10 0 -19 -3 -19 -7 0 -5 -20 -17 -45 -28 -25 -11 -45 -23 -45 -27 0
-5 -4 -8 -9 -8 -9 0 -131 -69 -141 -80 -5 -5 -26 -17 -75 -44 -11 -6 -22 -13
-25 -16 -15 -15 -100 -70 -108 -70 -6 0 -12 -3 -14 -8 -1 -4 -28 -25 -58 -47
-30 -22 -62 -45 -70 -52 -8 -6 -50 -39 -93 -73 -117 -92 -137 -108 -251 -213
-148 -135 -250 -241 -381 -393 -99 -114 -106 -123 -155 -189 -25 -33 -47 -62
-50 -65 -3 -3 -17 -21 -30 -40 -13 -19 -27 -37 -30 -40 -9 -8 -152 -228 -195
-300 -21 -36 -46 -76 -54 -90 -52 -83 -241 -466 -241 -488 0 -4 -7 -20 -16
-37 -9 -16 -25 -57 -36 -90 -11 -33 -24 -64 -28 -70 -8 -12 -49 -136 -55 -167
-3 -13 -9 -24 -15 -26 -6 -2 -8 -8 -4 -13 3 -5 2 -15 -3 -21 -4 -7 -8 -17 -9
-23 -3 -17 -35 -129 -44 -155 -5 -14 -12 -36 -15 -50 -2 -14 -11 -54 -20 -90
-13 -57 -41 -193 -61 -300 -4 -19 -8 -48 -9 -65 -2 -16 -4 -30 -5 -30 -1 0 -3
-13 -5 -30 -2 -16 -6 -48 -9 -70 -3 -22 -7 -59 -8 -82 -2 -24 -5 -43 -8 -43
-15 0 -20 -637 -7 -795 5 -49 10 -112 12 -140 3 -27 7 -66 10 -85 2 -19 8 -57
11 -85 4 -27 8 -52 9 -55 2 -3 7 -33 10 -65 4 -33 10 -64 13 -70 3 -5 7 -23 9
-40 1 -16 6 -41 9 -55 16 -60 14 -48 28 -132 5 -27 11 -48 15 -48 4 0 7 -10 8
-22 1 -24 2 -29 28 -118 22 -74 21 -73 28 -90 3 -8 20 -60 37 -115 52 -160
136 -367 226 -553 46 -96 84 -178 84 -183 0 -5 5 -9 10 -9 6 0 10 -6 10 -14 0
-8 3 -16 7 -18 5 -2 21 -29 38 -60 16 -32 33 -58 37 -58 4 0 7 -3 6 -7 -3 -9
2 -16 100 -168 36 -55 69 -101 73 -103 5 -2 9 -8 9 -13 0 -12 89 -133 101
-137 5 -2 9 -10 9 -18 0 -8 4 -14 8 -14 4 0 15 -12 24 -27 9 -16 28 -40 42
-55 14 -15 26 -30 26 -33 0 -3 8 -13 18 -23 9 -10 44 -49 77 -88 71 -83 359
-371 434 -434 29 -25 63 -54 76 -65 12 -11 39 -33 60 -50 21 -16 65 -51 98
-77 33 -27 62 -48 66 -48 3 0 17 -10 31 -23 14 -12 52 -40 85 -62 33 -21 62
-42 63 -47 2 -4 9 -8 16 -8 7 0 21 -8 32 -18 10 -9 32 -24 48 -32 57 -29 66
-35 66 -42 0 -5 6 -8 14 -8 7 0 19 -7 26 -15 7 -8 16 -12 21 -9 5 3 9 2 9 -3
0 -4 21 -19 48 -32 26 -14 55 -31 65 -39 9 -9 17 -12 17 -9 0 4 21 -7 46 -23
26 -16 51 -27 55 -24 5 3 9 1 9 -5 0 -6 11 -13 25 -17 14 -3 25 -10 25 -15 0
-5 7 -9 15 -9 8 0 30 -9 50 -20 20 -11 42 -20 49 -20 7 0 19 -7 26 -15 7 -9
15 -14 17 -11 2 2 34 -9 71 -25 83 -37 92 -41 172 -72 69 -27 269 -96 298
-102 9 -2 55 -15 102 -28 47 -14 99 -28 115 -32 17 -5 35 -9 40 -11 12 -4 45
-11 110 -24 28 -6 61 -13 75 -15 38 -8 121 -24 158 -30 17 -3 47 -8 65 -11 17
-3 50 -7 72 -10 22 -2 59 -6 83 -9 92 -11 131 -14 231 -20 124 -8 176 7 231
65 75 78 69 -119 69 2228 -1 1583 2 2119 11 2153 8 31 26 61 51 88 61 63 99
78 204 80 50 2 1010 3 2135 4 l2045 2 45 22 c56 27 83 55 110 116 19 43 21 60
15 155 -7 121 -12 187 -15 187 -1 0 -3 18 -5 40 -2 22 -6 60 -9 85 -4 25 -8
61 -11 80 -2 19 -6 45 -9 56 -2 12 -7 37 -10 55 -4 29 -35 183 -52 259 -3 14
-17 68 -31 120 -14 52 -27 102 -28 110 0 8 -6 24 -13 36 -6 11 -13 31 -15 45
-10 58 -20 89 -28 89 -5 0 -9 8 -9 17 0 16 -66 206 -90 258 -38 83 -58 135
-52 135 4 0 1 4 -6 9 -7 4 -14 14 -16 22 -3 18 -76 172 -85 179 -3 3 -8 14 -9
25 -2 11 -7 22 -11 25 -4 3 -18 25 -30 50 -12 25 -33 63 -46 85 -13 22 -27 47
-32 55 -15 32 -118 196 -140 226 -13 17 -23 34 -23 38 0 4 -6 14 -12 21 -27
30 -38 44 -38 50 0 11 -195 262 -279 359 -88 102 -94 109 -192 212 -51 54
-218 212 -279 264 -101 87 -150 127 -220 180 -18 14 -39 31 -46 38 -7 6 -17
12 -22 12 -5 0 -17 9 -27 20 -11 12 -36 31 -57 42 -21 12 -38 25 -38 30 0 4
-4 8 -10 8 -5 0 -37 20 -72 44 -35 23 -108 69 -163 102 -55 32 -102 61 -105
64 -6 7 -368 191 -375 190 -6 0 -90 37 -130 58 -16 9 -31 15 -33 14 -1 -1 -18
5 -38 13 -20 8 -40 15 -44 15 -4 0 -21 7 -38 15 -17 9 -39 18 -49 20 -10 2
-38 12 -63 21 -63 23 -266 85 -320 98 -131 32 -189 46 -210 51 -14 2 -44 9
-67 14 -24 4 -43 7 -43 4 0 -2 -8 1 -17 6 -10 5 -43 12 -73 16 -30 3 -62 8
-70 10 -21 5 -140 21 -230 30 -25 2 -72 7 -105 10 -62 7 -621 16 -627 10z"/>
<path d="M10518 17348 c-86 -18 -159 -92 -176 -178 -5 -26 -8 -1865 -8 -4465
l2 -4420 21 -40 c25 -48 65 -95 80 -95 6 0 16 -7 23 -15 7 -8 16 -13 20 -10 5
3 11 1 15 -5 8 -12 241 -4 370 14 17 2 57 7 90 11 33 4 63 9 67 12 5 2 29 6
55 8 48 5 81 10 111 19 9 3 34 7 55 11 81 11 406 94 487 123 8 3 20 6 25 8 13
3 156 53 175 61 8 3 20 7 26 8 6 2 27 9 45 18 112 48 209 87 218 87 6 0 11 5
11 10 0 6 3 9 8 8 14 -4 52 14 52 24 0 6 3 8 7 5 12 -12 314 151 547 296 46
28 152 102 164 114 7 7 19 13 27 13 7 0 15 4 17 8 2 4 32 30 68 57 36 27 67
52 70 55 3 3 21 17 42 32 20 15 42 33 50 40 7 7 29 26 48 42 104 85 312 285
423 408 27 29 60 67 75 83 58 63 222 273 222 283 0 5 7 12 15 16 8 3 15 12 15
21 0 8 4 15 8 15 10 0 174 247 223 335 18 33 37 65 41 70 26 32 190 363 245
495 56 133 56 134 54 144 -1 4 3 13 8 20 10 12 70 173 76 205 2 9 9 30 15 46
7 17 14 41 17 55 2 13 8 29 14 36 5 6 7 13 4 16 -2 2 6 40 20 83 13 43 22 82
19 86 -2 4 0 10 5 14 5 3 10 13 9 23 0 9 3 28 7 42 3 14 8 32 10 40 2 8 4 15
5 15 1 0 3 9 5 20 1 11 5 34 8 50 4 17 9 44 11 60 3 17 8 41 11 55 3 14 8 44
11 66 2 23 7 52 9 64 4 21 13 92 21 165 9 82 17 207 18 262 1 35 3 63 6 63 3
0 5 11 5 25 0 14 -3 25 -7 25 -4 0 -4 12 0 28 7 27 7 186 -1 250 -2 17 1 32 6
32 4 0 5 6 0 13 -4 6 -8 39 -9 72 -2 64 -10 156 -20 245 -4 30 -8 66 -9 80 -6
50 -49 302 -61 350 -3 14 -7 39 -10 55 -2 17 -7 37 -11 45 -3 8 -8 26 -10 40
-2 14 -8 39 -14 56 -5 17 -12 40 -14 50 -7 30 -22 86 -33 121 -6 17 -8 34 -4
37 3 3 1 6 -5 6 -5 0 -10 6 -10 13 -1 13 -54 173 -74 222 -7 17 -13 36 -15 43
-2 12 -52 135 -82 202 -8 19 -40 87 -70 150 -31 63 -55 118 -54 122 1 3 -5 12
-13 18 -8 7 -15 17 -15 22 0 9 -88 167 -137 247 -13 20 -30 51 -40 69 -9 17
-20 32 -25 32 -4 0 -8 6 -8 13 0 7 -9 23 -20 35 -12 12 -18 22 -15 22 2 0 -2
8 -10 18 -7 9 -44 60 -81 112 -37 52 -71 97 -76 98 -4 2 -8 8 -8 14 0 6 -9 20
-20 32 -10 11 -35 41 -55 66 -134 167 -351 395 -514 540 -41 36 -79 70 -85 75
-6 6 -36 30 -66 55 -30 25 -57 47 -60 50 -3 3 -21 17 -40 30 -19 13 -41 30
-49 38 -8 7 -26 21 -40 30 -22 14 -89 62 -126 90 -37 28 -125 82 -133 82 -6 0
-12 4 -14 9 -11 30 -557 317 -689 363 -19 6 -43 17 -55 25 -11 7 -24 10 -27 6
-4 -3 -7 0 -7 7 0 7 -3 11 -6 7 -4 -3 -23 1 -43 9 -36 16 -198 74 -216 78 -13
3 -180 53 -220 66 -16 5 -41 11 -55 14 -14 3 -43 10 -65 15 -107 25 -183 42
-214 47 -18 3 -43 8 -55 10 -11 3 -30 6 -41 8 -44 7 -111 17 -125 19 -8 2 -20
6 -27 10 -6 4 -14 3 -18 -3 -4 -6 -13 -7 -23 -2 -9 5 -37 10 -61 11 -24 2 -54
5 -65 7 -12 2 -59 7 -106 10 -47 3 -96 7 -110 8 -14 1 -42 -1 -62 -6z"/>
<path d="M16273 12718 c-30 -9 -62 -26 -72 -37 -10 -12 -23 -21 -28 -21 -5 0
-20 -21 -34 -47 -21 -42 -24 -61 -23 -143 1 -52 5 -129 9 -170 17 -180 24
-229 56 -399 17 -86 32 -165 33 -176 2 -11 4 -20 5 -20 1 0 4 -13 6 -30 2 -16
9 -31 14 -33 5 -2 8 -9 5 -17 -5 -12 13 -81 59 -230 6 -22 12 -42 12 -45 1
-13 37 -117 46 -132 5 -10 9 -23 9 -29 0 -6 6 -25 14 -42 8 -18 21 -52 29 -77
8 -25 27 -71 41 -102 14 -32 22 -58 18 -58 -4 0 -1 -4 6 -9 7 -4 14 -14 16
-22 6 -35 160 -343 235 -471 106 -180 273 -426 344 -507 6 -8 17 -22 22 -31 9
-16 48 -62 145 -174 167 -193 404 -421 586 -566 11 -8 33 -26 50 -40 17 -14
41 -33 55 -43 13 -9 56 -40 94 -68 103 -75 284 -192 395 -255 36 -21 68 -42
72 -48 4 -6 8 -7 8 -3 0 5 15 0 33 -11 32 -20 158 -86 167 -87 3 -1 43 -20 90
-42 113 -54 142 -66 225 -98 39 -15 79 -30 90 -35 42 -17 90 -35 100 -37 6 -1
34 -11 63 -21 28 -11 52 -18 52 -15 0 3 7 0 15 -7 8 -6 18 -9 24 -6 5 4 15 1
23 -6 7 -7 24 -14 38 -16 14 -1 32 -5 40 -9 20 -8 26 -10 100 -28 8 -2 17 -4
20 -5 3 -1 10 -3 15 -5 6 -1 12 -3 15 -4 7 -3 28 -8 74 -15 21 -3 43 -9 48
-12 5 -3 19 -7 31 -9 31 -5 77 -14 107 -21 14 -4 39 -8 55 -10 17 -2 41 -6 55
-9 41 -9 123 -19 158 -19 17 -1 32 -3 32 -6 0 -4 10 -6 23 -7 12 0 51 -4 87
-7 141 -14 284 -19 485 -18 221 1 337 7 490 26 22 2 67 7 99 11 33 4 69 9 80
11 12 2 35 7 51 9 38 7 130 23 170 31 17 3 48 10 70 15 22 6 49 12 60 13 11 2
40 9 65 16 25 7 56 14 69 17 14 2 28 6 33 9 4 3 16 7 25 9 10 2 43 11 73 20
30 9 62 18 70 20 34 8 225 78 305 110 11 4 25 9 30 10 6 2 31 12 55 23 65 29
140 61 145 62 12 3 291 144 295 149 3 3 25 16 50 29 25 13 65 36 90 52 25 16
51 29 58 29 6 1 12 6 12 11 0 6 6 10 14 10 7 0 19 6 25 14 7 8 27 22 46 31 19
9 35 20 35 25 0 6 6 10 14 10 8 0 21 6 28 13 7 6 33 25 58 42 25 16 47 32 50
35 3 3 39 30 80 60 41 29 80 59 86 64 6 6 30 27 54 46 24 19 49 41 56 48 8 7
14 10 14 7 0 -4 15 8 33 27 18 18 72 68 119 110 93 84 119 110 223 220 105
112 174 190 236 270 18 23 36 45 39 48 3 3 29 37 57 75 29 39 57 75 62 82 12
14 82 118 97 145 6 11 20 29 30 41 11 12 26 36 34 52 8 17 18 32 21 35 3 3 23
35 43 72 21 37 42 70 47 74 5 3 9 14 9 24 0 10 4 20 8 22 5 2 15 15 23 30 40
78 126 254 127 258 0 3 13 30 28 60 15 30 27 60 27 67 0 7 3 13 7 13 4 0 13
20 20 45 7 25 17 45 21 45 5 0 8 3 7 8 -1 4 4 23 11 42 8 19 15 40 16 45 2 6
10 26 19 46 8 20 12 39 9 43 -4 3 -1 6 5 6 7 0 11 3 10 8 -1 4 12 52 29 107
54 171 74 239 79 275 3 19 9 40 12 45 4 6 7 15 8 20 1 6 5 26 8 45 4 19 9 43
12 52 6 21 12 51 20 102 3 22 7 43 9 46 2 4 7 29 11 56 3 27 8 58 11 69 2 11
6 38 8 60 2 22 6 54 9 70 22 144 35 353 24 400 -15 62 -92 155 -128 155 -9 0
-21 5 -27 11 -7 7 -1306 11 -4439 12 -4098 2 -4432 1 -4481 -15z"/>
</g>
</svg>
