<svg width="200" height="73" viewBox="0 0 200 73" fill="none" xmlns="http://www.w3.org/2000/svg">
<path d="M36.5 70C36.5 71.6569 35.1545 73.0128 33.5033 72.8768C27.3407 72.3692 21.3902 70.3022 16.2217 66.8486C10.2193 62.838 5.54099 57.1374 2.7784 50.4679C0.0157978 43.7984 -0.707023 36.4595 0.701338 29.3792C2.1097 22.2989 5.58599 15.7952 10.6906 10.6906C15.7952 5.58598 22.2989 2.1097 29.3792 0.701336C36.4595 -0.707023 43.7984 0.0157994 50.468 2.7784C57.1375 5.541 62.838 10.2193 66.8486 16.2217C70.3022 21.3903 72.3692 27.3407 72.8768 33.5033C73.0128 35.1545 71.6569 36.5 70 36.5L39.5 36.5C37.8431 36.5 36.5 37.8431 36.5 39.5L36.5 70Z" fill="#EE4266"/>
<path d="M81.5 3C81.5 1.34315 82.8456 -0.0128267 84.4969 0.123149C93.0799 0.82993 101.174 4.55545 107.309 10.6906C114.154 17.5357 118 26.8196 118 36.5C118 46.1804 114.154 55.4643 107.309 62.3094C101.174 68.4445 93.0799 72.1701 84.4969 72.8769C82.8456 73.0128 81.5 71.6569 81.5 70L81.5 36.5L81.5 3Z" fill="#F2D23F"/>
<path d="M197 36.5C198.657 36.5 200.013 37.8456 199.877 39.4969C199.17 48.0799 195.445 56.1742 189.309 62.3094C182.464 69.1545 173.18 73 163.5 73C153.82 73 144.536 69.1545 137.691 62.3094C131.555 56.1743 127.83 48.0799 127.123 39.4969C126.987 37.8456 128.343 36.5 130 36.5L163.5 36.5L197 36.5Z" fill="#00FFAA"/>
</svg>
