<svg width="329" height="169" viewBox="0 0 329 169" fill="none" xmlns="http://www.w3.org/2000/svg">
<path d="M57.855 112.71C57.855 114.367 56.5108 115.718 54.8562 115.632C44.4664 115.093 34.3936 111.76 25.7125 105.96C16.1983 99.6025 8.78286 90.5668 4.40395 79.9951C0.0250406 69.4235 -1.12068 57.7908 1.11167 46.568C3.34402 35.3453 8.85417 25.0365 16.9453 16.9453C25.0365 8.85417 35.3453 3.34401 46.5681 1.11167C57.7908 -1.12068 69.4235 0.0250432 79.9952 4.40395C90.5668 8.78286 99.6025 16.1983 105.96 25.7125C111.76 34.3937 115.093 44.4664 115.632 54.8562C115.718 56.5108 114.367 57.855 112.71 57.855L60.855 57.855C59.1981 57.855 57.855 59.1981 57.855 60.855L57.855 112.71Z" fill="#EE4266"/>
<path d="M129.183 3C129.183 1.34315 130.527 -0.00811795 132.182 0.077699C146.434 0.816865 159.952 6.80437 170.093 16.9453C180.943 27.7953 187.038 42.5109 187.038 57.855C187.038 73.1991 180.943 87.9147 170.093 98.7647C159.952 108.906 146.434 114.893 132.182 115.632C130.527 115.718 129.183 114.367 129.183 112.71L129.183 57.855V3Z" fill="#F2D23F"/>
<path d="M314.014 57.855C315.671 57.855 317.022 59.1992 316.936 60.8539C316.197 75.1057 310.209 88.6237 300.068 98.7647C289.218 109.615 274.503 115.71 259.159 115.71C243.815 115.71 229.099 109.615 218.249 98.7647C208.108 88.6237 202.121 75.1057 201.381 60.8539C201.296 59.1992 202.647 57.855 204.304 57.855L259.159 57.855H314.014Z" fill="#00FFAA"/>
<path d="M62.11 151.86C62.6733 151.86 63.1067 152.12 63.41 152.64C63.7567 153.16 63.93 153.875 63.93 154.785C63.93 156.518 63.5183 157.862 62.695 158.815C61.0917 160.765 58.8167 162.563 55.87 164.21C52.9667 165.857 49.8467 166.68 46.51 166.68C41.96 166.68 38.4283 165.445 35.915 162.975C33.4017 160.505 32.145 157.125 32.145 152.835C32.145 149.845 32.7733 147.072 34.03 144.515C35.2867 141.915 37.02 139.857 39.23 138.34C41.4833 136.823 44.0183 136.065 46.835 136.065C49.3483 136.065 51.3633 136.823 52.88 138.34C54.3967 139.813 55.155 141.828 55.155 144.385C55.155 147.375 54.0717 149.953 51.905 152.12C49.7817 154.243 46.1633 155.933 41.05 157.19C42.1333 159.183 44.1917 160.18 47.225 160.18C49.175 160.18 51.385 159.508 53.855 158.165C56.3683 156.778 58.535 154.98 60.355 152.77C60.875 152.163 61.46 151.86 62.11 151.86ZM45.73 142.435C44.1267 142.435 42.7617 143.367 41.635 145.23C40.5517 147.093 40.01 149.347 40.01 151.99V152.12C42.5667 151.513 44.5817 150.603 46.055 149.39C47.5283 148.177 48.265 146.768 48.265 145.165C48.265 144.342 48.0267 143.692 47.55 143.215C47.1167 142.695 46.51 142.435 45.73 142.435ZM95.2402 151.86C95.8035 151.86 96.2369 152.12 96.5402 152.64C96.8869 153.16 97.0602 153.875 97.0602 154.785C97.0602 156.518 96.6485 157.862 95.8252 158.815C94.0485 160.982 92.0985 162.845 89.9752 164.405C87.8519 165.922 85.7502 166.68 83.6702 166.68C80.3769 166.68 77.8635 164.752 76.1302 160.895C74.3102 163.192 72.7069 164.73 71.3202 165.51C69.9769 166.29 68.3952 166.68 66.5752 166.68C63.9319 166.68 61.7435 165.705 60.0102 163.755C58.3202 161.762 57.4752 159.183 57.4752 156.02C57.4752 152.553 58.2119 149.347 59.6852 146.4C61.1585 143.41 63.1735 140.983 65.7302 139.12C68.3302 137.213 71.2335 136.087 74.4402 135.74C75.2635 127.333 76.8235 120.162 79.1202 114.225C81.4602 108.245 84.5152 105.255 88.2852 105.255C90.1485 105.255 91.6869 106.1 92.9002 107.79C94.1569 109.48 94.7852 112.037 94.7852 115.46C94.7852 120.313 93.5935 125.99 91.2102 132.49C88.8269 138.99 85.6419 145.663 81.6552 152.51C81.8285 155.023 82.1969 156.822 82.7602 157.905C83.3669 158.988 84.1252 159.53 85.0352 159.53C86.2052 159.53 87.3969 159.01 88.6102 157.97C89.8235 156.93 91.4485 155.197 93.4852 152.77C94.0052 152.163 94.5902 151.86 95.2402 151.86ZM87.5702 111.625C86.7469 111.625 85.9235 113.098 85.1002 116.045C84.2769 118.948 83.5619 122.762 82.9552 127.485C82.3919 132.208 81.9802 137.148 81.7202 142.305C86.5735 131.732 89.0002 123.238 89.0002 116.825C89.0002 115.178 88.8485 113.9 88.5452 112.99C88.2852 112.08 87.9602 111.625 87.5702 111.625ZM68.8502 160.115C69.6735 160.115 70.4969 159.79 71.3202 159.14C72.1435 158.447 73.1835 157.19 74.4402 155.37C74.0069 153.03 73.7902 150.408 73.7902 147.505C73.7902 146.465 73.8335 144.775 73.9202 142.435C71.5369 143.172 69.5435 144.775 67.9402 147.245C66.3802 149.672 65.6002 152.38 65.6002 155.37C65.6002 158.533 66.6835 160.115 68.8502 160.115ZM98.4023 166.68C96.4523 166.68 94.849 165.792 93.5923 164.015C92.379 162.195 91.7723 159.942 91.7723 157.255C91.7723 154.005 91.989 151.037 92.4223 148.35C92.8557 145.62 93.5707 142.738 94.5673 139.705C95.0007 138.405 95.6073 137.473 96.3873 136.91C97.1673 136.347 98.4023 136.065 100.092 136.065C101.046 136.065 101.696 136.217 102.042 136.52C102.432 136.823 102.627 137.278 102.627 137.885C102.627 138.232 102.389 139.402 101.912 141.395C101.479 142.998 101.132 144.45 100.872 145.75C100.006 150.3 99.5723 153.333 99.5723 154.85C99.5723 155.76 99.6807 156.41 99.8973 156.8C100.114 157.147 100.461 157.32 100.937 157.32C101.587 157.32 102.389 156.67 103.342 155.37C104.339 154.07 105.379 152.098 106.462 149.455C107.589 146.812 108.672 143.562 109.712 139.705C110.059 138.405 110.579 137.473 111.272 136.91C112.009 136.347 113.092 136.065 114.522 136.065C115.519 136.065 116.212 136.195 116.602 136.455C116.992 136.672 117.187 137.105 117.187 137.755C117.187 138.838 116.646 141.807 115.562 146.66C114.349 152.207 113.742 155.63 113.742 156.93C113.742 157.753 113.916 158.403 114.262 158.88C114.609 159.313 115.064 159.53 115.627 159.53C116.494 159.53 117.512 159.01 118.682 157.97C119.896 156.887 121.499 155.153 123.492 152.77C124.012 152.163 124.597 151.86 125.247 151.86C125.811 151.86 126.244 152.12 126.547 152.64C126.894 153.16 127.067 153.875 127.067 154.785C127.067 156.518 126.656 157.862 125.832 158.815C123.969 161.112 121.954 162.997 119.787 164.47C117.664 165.943 115.237 166.68 112.507 166.68C110.427 166.68 108.889 165.878 107.892 164.275C106.939 162.672 106.462 160.418 106.462 157.515C105.726 160.462 104.621 162.737 103.147 164.34C101.674 165.9 100.092 166.68 98.4023 166.68ZM134.212 166.68C129.965 166.68 126.65 165.488 124.267 163.105C121.927 160.678 120.757 157.493 120.757 153.55C120.757 150.04 121.45 146.963 122.837 144.32C124.223 141.677 126.022 139.64 128.232 138.21C130.442 136.78 132.76 136.065 135.187 136.065C137.57 136.065 139.412 136.78 140.712 138.21C142.055 139.597 142.727 141.395 142.727 143.605C142.727 145.425 142.315 146.963 141.492 148.22C140.712 149.477 139.672 150.105 138.372 150.105C137.548 150.105 136.877 149.91 136.357 149.52C135.88 149.13 135.642 148.588 135.642 147.895C135.642 147.592 135.685 147.245 135.772 146.855C135.858 146.465 135.923 146.183 135.967 146.01C136.183 145.36 136.292 144.753 136.292 144.19C136.292 143.627 136.14 143.193 135.837 142.89C135.577 142.587 135.187 142.435 134.667 142.435C133.67 142.435 132.738 142.89 131.872 143.8C131.005 144.667 130.312 145.858 129.792 147.375C129.272 148.892 129.012 150.56 129.012 152.38C129.012 157.407 131.2 159.92 135.577 159.92C137.353 159.92 139.26 159.335 141.297 158.165C143.377 156.952 145.413 155.153 147.407 152.77C147.927 152.163 148.512 151.86 149.162 151.86C149.725 151.86 150.158 152.12 150.462 152.64C150.808 153.16 150.982 153.875 150.982 154.785C150.982 156.432 150.57 157.775 149.747 158.815C147.71 161.328 145.262 163.278 142.402 164.665C139.585 166.008 136.855 166.68 134.212 166.68ZM153.088 166.68C150.401 166.68 148.256 165.705 146.653 163.755C145.049 161.805 144.248 159.248 144.248 156.085C144.248 152.618 145.049 149.347 146.653 146.27C148.256 143.15 150.379 140.658 153.023 138.795C155.709 136.888 158.548 135.935 161.538 135.935C162.491 135.935 163.119 136.13 163.423 136.52C163.769 136.867 164.051 137.517 164.268 138.47C165.178 138.297 166.131 138.21 167.128 138.21C169.251 138.21 170.313 138.968 170.313 140.485C170.313 141.395 169.988 143.562 169.338 146.985C168.341 151.968 167.843 155.435 167.843 157.385C167.843 158.035 167.994 158.555 168.298 158.945C168.644 159.335 169.078 159.53 169.598 159.53C170.421 159.53 171.418 159.01 172.588 157.97C173.758 156.887 175.339 155.153 177.333 152.77C177.853 152.163 178.438 151.86 179.088 151.86C179.651 151.86 180.084 152.12 180.388 152.64C180.734 153.16 180.908 153.875 180.908 154.785C180.908 156.518 180.496 157.862 179.673 158.815C177.896 161.025 176.011 162.888 174.018 164.405C172.024 165.922 170.096 166.68 168.233 166.68C166.803 166.68 165.481 166.203 164.268 165.25C163.098 164.253 162.209 162.91 161.603 161.22C159.349 164.86 156.511 166.68 153.088 166.68ZM155.428 160.115C156.381 160.115 157.291 159.552 158.158 158.425C159.024 157.298 159.653 155.803 160.043 153.94L162.448 141.98C160.628 142.023 158.938 142.717 157.378 144.06C155.861 145.36 154.648 147.093 153.738 149.26C152.828 151.427 152.373 153.723 152.373 156.15C152.373 157.493 152.633 158.49 153.153 159.14C153.716 159.79 154.474 160.115 155.428 160.115ZM208.435 146.595C208.565 146.552 208.781 146.53 209.085 146.53C209.735 146.53 210.233 146.747 210.58 147.18C210.926 147.613 211.1 148.198 211.1 148.935C211.1 150.278 210.84 151.34 210.32 152.12C209.8 152.857 209.02 153.398 207.98 153.745C205.986 154.395 203.863 154.72 201.61 154.72C199.703 154.72 197.905 154.46 196.215 153.94C194.958 155.977 193.571 158.078 192.055 160.245C190.321 162.715 188.826 164.405 187.57 165.315C186.313 166.225 184.883 166.68 183.28 166.68C181.503 166.68 180.095 165.987 179.055 164.6C178.058 163.213 177.43 161.025 177.17 158.035C176.65 151.968 176.39 146.66 176.39 142.11V139.835C176.433 138.405 176.823 137.408 177.56 136.845C178.296 136.282 179.401 136 180.875 136C182.001 136 182.825 136.26 183.345 136.78C183.908 137.257 184.19 138.08 184.19 139.25C184.19 144.233 184.493 150.712 185.1 158.685C187.7 154.828 189.65 151.752 190.95 149.455C190.3 148.198 189.975 146.703 189.975 144.97C189.975 143.497 190.3 142.067 190.95 140.68C191.6 139.293 192.488 138.167 193.615 137.3C194.741 136.433 196.02 136 197.45 136C198.706 136 199.725 136.455 200.505 137.365C201.285 138.232 201.675 139.51 201.675 141.2C201.675 143.15 201.155 145.382 200.115 147.895C201.761 147.808 203.95 147.483 206.68 146.92L208.435 146.595ZM234.449 151.86C235.012 151.86 235.446 152.12 235.749 152.64C236.096 153.16 236.269 153.875 236.269 154.785C236.269 156.518 235.857 157.862 235.034 158.815C233.431 160.765 231.156 162.563 228.209 164.21C225.306 165.857 222.186 166.68 218.849 166.68C214.299 166.68 210.767 165.445 208.254 162.975C205.741 160.505 204.484 157.125 204.484 152.835C204.484 149.845 205.112 147.072 206.369 144.515C207.626 141.915 209.359 139.857 211.569 138.34C213.822 136.823 216.357 136.065 219.174 136.065C221.687 136.065 223.702 136.823 225.219 138.34C226.736 139.813 227.494 141.828 227.494 144.385C227.494 147.375 226.411 149.953 224.244 152.12C222.121 154.243 218.502 155.933 213.389 157.19C214.472 159.183 216.531 160.18 219.564 160.18C221.514 160.18 223.724 159.508 226.194 158.165C228.707 156.778 230.874 154.98 232.694 152.77C233.214 152.163 233.799 151.86 234.449 151.86ZM218.069 142.435C216.466 142.435 215.101 143.367 213.974 145.23C212.891 147.093 212.349 149.347 212.349 151.99V152.12C214.906 151.513 216.921 150.603 218.394 149.39C219.867 148.177 220.604 146.768 220.604 145.165C220.604 144.342 220.366 143.692 219.889 143.215C219.456 142.695 218.849 142.435 218.069 142.435ZM257.236 144.97C258.19 144.97 258.991 145.317 259.641 146.01C260.335 146.66 260.681 147.483 260.681 148.48C260.681 149.043 260.551 149.65 260.291 150.3C259.598 151.903 258.623 153.247 257.366 154.33C256.11 155.413 254.723 155.955 253.206 155.955C251.993 155.955 250.953 155.522 250.086 154.655C249.263 153.788 248.851 152.618 248.851 151.145C248.851 150.322 248.895 149.433 248.981 148.48C249.068 147.787 249.111 147.31 249.111 147.05C249.111 146.703 249.025 146.443 248.851 146.27C248.721 146.097 248.548 146.01 248.331 146.01C247.725 146.01 246.901 146.747 245.861 148.22C244.821 149.65 243.781 151.557 242.741 153.94C241.701 156.323 240.856 158.837 240.206 161.48C239.73 163.56 239.188 164.947 238.581 165.64C237.975 166.333 236.978 166.68 235.591 166.68C233.945 166.68 232.775 165.813 232.081 164.08C231.431 162.347 231.106 159.573 231.106 155.76C231.106 150.127 231.908 144.775 233.511 139.705C233.901 138.448 234.53 137.538 235.396 136.975C236.306 136.368 237.563 136.065 239.166 136.065C240.033 136.065 240.64 136.173 240.986 136.39C241.333 136.607 241.506 137.018 241.506 137.625C241.506 138.318 241.181 139.878 240.531 142.305C240.098 144.038 239.751 145.555 239.491 146.855C239.231 148.155 239.015 149.758 238.841 151.665C240.271 147.938 241.875 144.905 243.651 142.565C245.428 140.225 247.161 138.557 248.851 137.56C250.541 136.563 252.08 136.065 253.466 136.065C254.723 136.065 255.676 136.433 256.326 137.17C257.02 137.863 257.366 138.903 257.366 140.29C257.366 141.113 257.128 142.673 256.651 144.97H257.236ZM273.599 168.11C271.345 168.11 269.612 167.59 268.399 166.55C267.229 165.51 266.644 164.34 266.644 163.04C266.644 161.913 267.055 160.938 267.879 160.115C268.702 159.292 269.915 158.88 271.519 158.88C272.082 158.88 272.732 158.945 273.469 159.075C274.249 159.162 274.834 159.227 275.224 159.27C275.18 158.143 274.92 157.082 274.444 156.085C274.01 155.088 273.447 154.135 272.754 153.225C272.06 152.272 271.41 151.448 270.804 150.755C269.46 153.312 268.117 155.435 266.774 157.125C265.474 158.815 264.044 160.418 262.484 161.935C261.704 162.715 260.88 163.105 260.014 163.105C259.32 163.105 258.757 162.867 258.324 162.39C257.89 161.87 257.674 161.242 257.674 160.505C257.674 159.638 257.977 158.837 258.584 158.1L259.429 157.06C261.812 154.113 263.61 151.687 264.824 149.78C265.56 148.523 266.427 146.855 267.424 144.775C268.42 142.652 269.395 140.463 270.349 138.21C271.172 136.303 272.884 135.35 275.484 135.35C276.697 135.35 277.542 135.458 278.019 135.675C278.495 135.892 278.734 136.238 278.734 136.715C278.734 136.975 278.647 137.387 278.474 137.95C278.3 138.513 278.062 139.077 277.759 139.64C276.979 141.2 276.589 142.522 276.589 143.605C276.589 144.255 276.805 144.97 277.239 145.75C277.715 146.53 278.43 147.505 279.384 148.675C280.77 150.495 281.81 152.055 282.504 153.355C283.24 154.612 283.609 155.998 283.609 157.515C283.609 157.948 283.565 158.555 283.479 159.335C285.602 158.512 288.094 156.323 290.954 152.77C291.474 152.163 292.059 151.86 292.709 151.86C293.272 151.86 293.705 152.12 294.009 152.64C294.355 153.16 294.529 153.875 294.529 154.785C294.529 156.432 294.117 157.775 293.294 158.815C291.127 161.502 289.047 163.343 287.054 164.34C285.104 165.293 282.677 165.813 279.774 165.9C278.04 167.373 275.982 168.11 273.599 168.11ZM300.233 166.68C297.676 166.68 295.488 166.052 293.668 164.795C291.891 163.495 290.548 161.805 289.638 159.725C288.728 157.645 288.273 155.413 288.273 153.03C288.273 149.737 288.88 146.812 290.093 144.255C291.35 141.655 293.04 139.64 295.163 138.21C297.286 136.737 299.67 136 302.313 136C304.87 136 307.058 136.65 308.878 137.95C310.698 139.207 312.063 140.875 312.973 142.955C313.883 145.035 314.338 147.267 314.338 149.65C314.338 152.943 313.71 155.89 312.453 158.49C311.196 161.047 309.485 163.062 307.318 164.535C305.195 165.965 302.833 166.68 300.233 166.68ZM300.948 159.66C302.421 159.66 303.656 158.858 304.653 157.255C305.693 155.652 306.213 153.312 306.213 150.235C306.213 147.852 305.78 146.053 304.913 144.84C304.046 143.627 303.006 143.02 301.793 143.02C300.233 143.02 298.933 143.822 297.893 145.425C296.896 146.985 296.398 149.325 296.398 152.445C296.398 154.915 296.831 156.735 297.698 157.905C298.565 159.075 299.648 159.66 300.948 159.66Z" fill="#1C1C1C"/>
</svg>
