<svg width="637" height="128" viewBox="0 0 637 128" fill="none" xmlns="http://www.w3.org/2000/svg">
<path d="M36.5 119C36.5 120.657 35.1545 122.013 33.5033 121.877C27.3407 121.369 21.3902 119.302 16.2217 115.849C10.2193 111.838 5.54099 106.137 2.7784 99.4679C0.0157978 92.7984 -0.707023 85.4595 0.701338 78.3792C2.1097 71.2989 5.58599 64.7952 10.6906 59.6906C15.7952 54.586 22.2989 51.1097 29.3792 49.7013C36.4595 48.293 43.7984 49.0158 50.4679 51.7784C57.1375 54.541 62.838 59.2193 66.8486 65.2217C70.3022 70.3903 72.3692 76.3407 72.8768 82.5033C73.0128 84.1545 71.6569 85.5 70 85.5L39.5 85.5C37.8431 85.5 36.5 86.8431 36.5 88.5V119Z" fill="#EE4266"/>
<path d="M81.5 52C81.5 50.3431 82.8456 48.9872 84.4969 49.1231C93.0799 49.8299 101.174 53.5555 107.309 59.6906C114.154 66.5357 118 75.8196 118 85.5C118 95.1804 114.154 104.464 107.309 111.309C101.174 117.445 93.0799 121.17 84.4969 121.877C82.8456 122.013 81.5 120.657 81.5 119L81.5 85.5V52Z" fill="#F2D23F"/>
<path d="M197 85.5C198.657 85.5 200.013 86.8456 199.877 88.4969C199.17 97.0799 195.445 105.174 189.309 111.309C182.464 118.154 173.18 122 163.5 122C153.82 122 144.536 118.154 137.691 111.309C131.555 105.174 127.83 97.0799 127.123 88.4969C126.987 86.8456 128.343 85.5 130 85.5L163.5 85.5H197Z" fill="#00FFAA"/>
<path d="M262.424 103.592C263.256 103.592 263.896 103.976 264.344 104.744C264.856 105.512 265.112 106.568 265.112 107.912C265.112 110.472 264.504 112.456 263.288 113.864C260.92 116.744 257.56 119.4 253.208 121.832C248.92 124.264 244.312 125.48 239.384 125.48C232.664 125.48 227.448 123.656 223.736 120.008C220.024 116.36 218.168 111.368 218.168 105.032C218.168 100.616 219.096 96.52 220.952 92.744C222.808 88.904 225.368 85.864 228.632 83.624C231.96 81.384 235.704 80.264 239.864 80.264C243.576 80.264 246.552 81.384 248.792 83.624C251.032 85.8 252.152 88.776 252.152 92.552C252.152 96.968 250.552 100.776 247.352 103.976C244.216 107.112 238.872 109.608 231.32 111.464C232.92 114.408 235.96 115.88 240.44 115.88C243.32 115.88 246.584 114.888 250.232 112.904C253.944 110.856 257.144 108.2 259.832 104.936C260.6 104.04 261.464 103.592 262.424 103.592ZM238.232 89.672C235.864 89.672 233.848 91.048 232.184 93.8C230.584 96.552 229.784 99.88 229.784 103.784V103.976C233.56 103.08 236.536 101.736 238.712 99.944C240.888 98.152 241.976 96.072 241.976 93.704C241.976 92.488 241.624 91.528 240.92 90.824C240.28 90.056 239.384 89.672 238.232 89.672ZM311.355 103.592C312.187 103.592 312.827 103.976 313.275 104.744C313.787 105.512 314.043 106.568 314.043 107.912C314.043 110.472 313.435 112.456 312.219 113.864C309.595 117.064 306.715 119.816 303.579 122.12C300.443 124.36 297.339 125.48 294.267 125.48C289.403 125.48 285.691 122.632 283.131 116.936C280.443 120.328 278.075 122.6 276.027 123.752C274.043 124.904 271.707 125.48 269.019 125.48C265.115 125.48 261.883 124.04 259.323 121.16C256.827 118.216 255.579 114.408 255.579 109.736C255.579 104.616 256.667 99.88 258.843 95.528C261.019 91.112 263.995 87.528 267.771 84.776C271.611 81.96 275.899 80.296 280.635 79.784C281.851 67.368 284.155 56.776 287.547 48.008C291.003 39.176 295.515 34.76 301.083 34.76C303.835 34.76 306.107 36.008 307.899 38.504C309.755 41 310.683 44.776 310.683 49.832C310.683 57 308.923 65.384 305.403 74.984C301.883 84.584 297.179 94.44 291.291 104.552C291.547 108.264 292.091 110.92 292.923 112.52C293.819 114.12 294.939 114.92 296.283 114.92C298.011 114.92 299.771 114.152 301.563 112.616C303.355 111.08 305.755 108.52 308.763 104.936C309.531 104.04 310.395 103.592 311.355 103.592ZM300.027 44.168C298.811 44.168 297.595 46.344 296.379 50.696C295.163 54.984 294.107 60.616 293.211 67.592C292.379 74.568 291.771 81.864 291.387 89.48C298.555 73.864 302.139 61.32 302.139 51.848C302.139 49.416 301.915 47.528 301.467 46.184C301.083 44.84 300.603 44.168 300.027 44.168ZM272.379 115.784C273.595 115.784 274.811 115.304 276.027 114.344C277.243 113.32 278.779 111.464 280.635 108.776C279.995 105.32 279.675 101.448 279.675 97.16C279.675 95.624 279.739 93.128 279.867 89.672C276.347 90.76 273.403 93.128 271.035 96.776C268.731 100.36 267.579 104.36 267.579 108.776C267.579 113.448 269.179 115.784 272.379 115.784ZM316.025 125.48C313.145 125.48 310.777 124.168 308.921 121.544C307.129 118.856 306.233 115.528 306.233 111.56C306.233 106.76 306.553 102.376 307.193 98.408C307.833 94.376 308.889 90.12 310.361 85.64C311.001 83.72 311.897 82.344 313.049 81.512C314.201 80.68 316.025 80.264 318.521 80.264C319.929 80.264 320.889 80.488 321.401 80.936C321.977 81.384 322.265 82.056 322.265 82.952C322.265 83.464 321.913 85.192 321.209 88.136C320.569 90.504 320.057 92.648 319.673 94.568C318.393 101.288 317.753 105.768 317.753 108.008C317.753 109.352 317.913 110.312 318.233 110.888C318.553 111.4 319.065 111.656 319.769 111.656C320.729 111.656 321.913 110.696 323.321 108.776C324.793 106.856 326.329 103.944 327.929 100.04C329.593 96.136 331.193 91.336 332.729 85.64C333.241 83.72 334.009 82.344 335.033 81.512C336.121 80.68 337.721 80.264 339.833 80.264C341.305 80.264 342.329 80.456 342.905 80.84C343.481 81.16 343.769 81.8 343.769 82.76C343.769 84.36 342.969 88.744 341.369 95.912C339.577 104.104 338.681 109.16 338.681 111.08C338.681 112.296 338.937 113.256 339.449 113.96C339.961 114.6 340.633 114.92 341.465 114.92C342.745 114.92 344.249 114.152 345.977 112.616C347.769 111.016 350.137 108.456 353.081 104.936C353.849 104.04 354.713 103.592 355.673 103.592C356.505 103.592 357.145 103.976 357.593 104.744C358.105 105.512 358.361 106.568 358.361 107.912C358.361 110.472 357.753 112.456 356.537 113.864C353.785 117.256 350.809 120.04 347.609 122.216C344.473 124.392 340.889 125.48 336.857 125.48C333.785 125.48 331.513 124.296 330.041 121.928C328.633 119.56 327.929 116.232 327.929 111.944C326.841 116.296 325.209 119.656 323.033 122.024C320.857 124.328 318.521 125.48 316.025 125.48ZM368.913 125.48C362.641 125.48 357.745 123.72 354.225 120.2C350.769 116.616 349.041 111.912 349.041 106.088C349.041 100.904 350.065 96.36 352.113 92.456C354.161 88.552 356.817 85.544 360.081 83.432C363.345 81.32 366.769 80.264 370.353 80.264C373.873 80.264 376.593 81.32 378.513 83.432C380.497 85.48 381.489 88.136 381.489 91.4C381.489 94.088 380.881 96.36 379.665 98.216C378.513 100.072 376.977 101 375.057 101C373.841 101 372.849 100.712 372.081 100.136C371.377 99.56 371.025 98.76 371.025 97.736C371.025 97.288 371.089 96.776 371.217 96.2C371.345 95.624 371.441 95.208 371.505 94.952C371.825 93.992 371.985 93.096 371.985 92.264C371.985 91.432 371.761 90.792 371.313 90.344C370.929 89.896 370.353 89.672 369.585 89.672C368.113 89.672 366.737 90.344 365.457 91.688C364.177 92.968 363.153 94.728 362.385 96.968C361.617 99.208 361.233 101.672 361.233 104.36C361.233 111.784 364.465 115.496 370.929 115.496C373.553 115.496 376.369 114.632 379.377 112.904C382.449 111.112 385.457 108.456 388.401 104.936C389.169 104.04 390.033 103.592 390.993 103.592C391.825 103.592 392.465 103.976 392.913 104.744C393.425 105.512 393.681 106.568 393.681 107.912C393.681 110.344 393.073 112.328 391.857 113.864C388.849 117.576 385.233 120.456 381.009 122.504C376.849 124.488 372.817 125.48 368.913 125.48ZM396.791 125.48C392.823 125.48 389.655 124.04 387.287 121.16C384.919 118.28 383.735 114.504 383.735 109.832C383.735 104.712 384.919 99.88 387.287 95.336C389.655 90.728 392.791 87.048 396.695 84.296C400.663 81.48 404.855 80.072 409.271 80.072C410.679 80.072 411.607 80.36 412.055 80.936C412.567 81.448 412.983 82.408 413.303 83.816C414.647 83.56 416.055 83.432 417.527 83.432C420.663 83.432 422.231 84.552 422.231 86.792C422.231 88.136 421.751 91.336 420.791 96.392C419.319 103.752 418.583 108.872 418.583 111.752C418.583 112.712 418.807 113.48 419.255 114.056C419.767 114.632 420.407 114.92 421.175 114.92C422.391 114.92 423.863 114.152 425.591 112.616C427.319 111.016 429.655 108.456 432.599 104.936C433.367 104.04 434.231 103.592 435.191 103.592C436.023 103.592 436.663 103.976 437.111 104.744C437.623 105.512 437.879 106.568 437.879 107.912C437.879 110.472 437.271 112.456 436.055 113.864C433.431 117.128 430.647 119.88 427.703 122.12C424.759 124.36 421.911 125.48 419.159 125.48C417.047 125.48 415.095 124.776 413.303 123.368C411.575 121.896 410.263 119.912 409.367 117.416C406.039 122.792 401.847 125.48 396.791 125.48ZM400.247 115.784C401.655 115.784 402.999 114.952 404.279 113.288C405.559 111.624 406.487 109.416 407.063 106.664L410.615 89C407.927 89.064 405.431 90.088 403.127 92.072C400.887 93.992 399.095 96.552 397.751 99.752C396.407 102.952 395.735 106.344 395.735 109.928C395.735 111.912 396.119 113.384 396.887 114.344C397.719 115.304 398.839 115.784 400.247 115.784ZM478.534 95.816C478.726 95.752 479.046 95.72 479.494 95.72C480.454 95.72 481.19 96.04 481.702 96.68C482.214 97.32 482.47 98.184 482.47 99.272C482.47 101.256 482.086 102.824 481.318 103.976C480.55 105.064 479.398 105.864 477.862 106.376C474.918 107.336 471.782 107.816 468.454 107.816C465.638 107.816 462.982 107.432 460.486 106.664C458.63 109.672 456.582 112.776 454.342 115.976C451.782 119.624 449.574 122.12 447.718 123.464C445.862 124.808 443.75 125.48 441.382 125.48C438.758 125.48 436.678 124.456 435.142 122.408C433.67 120.36 432.742 117.128 432.358 112.712C431.59 103.752 431.206 95.912 431.206 89.192V85.832C431.27 83.72 431.846 82.248 432.934 81.416C434.022 80.584 435.654 80.168 437.83 80.168C439.494 80.168 440.71 80.552 441.478 81.32C442.31 82.024 442.726 83.24 442.726 84.968C442.726 92.328 443.174 101.896 444.07 113.672C447.91 107.976 450.79 103.432 452.71 100.04C451.75 98.184 451.27 95.976 451.27 93.416C451.27 91.24 451.75 89.128 452.71 87.08C453.67 85.032 454.982 83.368 456.646 82.088C458.31 80.808 460.198 80.168 462.31 80.168C464.166 80.168 465.67 80.84 466.822 82.184C467.974 83.464 468.55 85.352 468.55 87.848C468.55 90.728 467.782 94.024 466.246 97.736C468.678 97.608 471.91 97.128 475.942 96.296L478.534 95.816ZM516.955 103.592C517.787 103.592 518.427 103.976 518.875 104.744C519.387 105.512 519.643 106.568 519.643 107.912C519.643 110.472 519.035 112.456 517.819 113.864C515.451 116.744 512.091 119.4 507.739 121.832C503.451 124.264 498.843 125.48 493.915 125.48C487.195 125.48 481.979 123.656 478.267 120.008C474.555 116.36 472.699 111.368 472.699 105.032C472.699 100.616 473.627 96.52 475.483 92.744C477.339 88.904 479.899 85.864 483.163 83.624C486.491 81.384 490.235 80.264 494.395 80.264C498.107 80.264 501.083 81.384 503.323 83.624C505.563 85.8 506.683 88.776 506.683 92.552C506.683 96.968 505.083 100.776 501.883 103.976C498.747 107.112 493.403 109.608 485.851 111.464C487.451 114.408 490.491 115.88 494.971 115.88C497.851 115.88 501.115 114.888 504.763 112.904C508.475 110.856 511.675 108.2 514.363 104.936C515.131 104.04 515.995 103.592 516.955 103.592ZM492.763 89.672C490.395 89.672 488.379 91.048 486.715 93.8C485.115 96.552 484.315 99.88 484.315 103.784V103.976C488.091 103.08 491.067 101.736 493.243 99.944C495.419 98.152 496.507 96.072 496.507 93.704C496.507 92.488 496.155 91.528 495.451 90.824C494.811 90.056 493.915 89.672 492.763 89.672ZM550.611 93.416C552.019 93.416 553.203 93.928 554.163 94.952C555.187 95.912 555.699 97.128 555.699 98.6C555.699 99.432 555.507 100.328 555.123 101.288C554.099 103.656 552.659 105.64 550.803 107.24C548.947 108.84 546.899 109.64 544.659 109.64C542.867 109.64 541.331 109 540.051 107.72C538.835 106.44 538.227 104.712 538.227 102.536C538.227 101.32 538.291 100.008 538.419 98.6C538.547 97.576 538.611 96.872 538.611 96.488C538.611 95.976 538.483 95.592 538.227 95.336C538.035 95.08 537.779 94.952 537.459 94.952C536.563 94.952 535.347 96.04 533.811 98.216C532.275 100.328 530.739 103.144 529.203 106.664C527.667 110.184 526.419 113.896 525.459 117.8C524.755 120.872 523.955 122.92 523.059 123.944C522.163 124.968 520.691 125.48 518.643 125.48C516.211 125.48 514.483 124.2 513.459 121.64C512.499 119.08 512.019 114.984 512.019 109.352C512.019 101.032 513.203 93.128 515.571 85.64C516.147 83.784 517.075 82.44 518.355 81.608C519.699 80.712 521.555 80.264 523.923 80.264C525.203 80.264 526.099 80.424 526.611 80.744C527.123 81.064 527.379 81.672 527.379 82.568C527.379 83.592 526.899 85.896 525.939 89.48C525.299 92.04 524.787 94.28 524.403 96.2C524.019 98.12 523.699 100.488 523.443 103.304C525.555 97.8 527.923 93.32 530.547 89.864C533.171 86.408 535.731 83.944 538.227 82.472C540.723 81 542.995 80.264 545.043 80.264C546.899 80.264 548.307 80.808 549.267 81.896C550.291 82.92 550.803 84.456 550.803 86.504C550.803 87.72 550.451 90.024 549.747 93.416H550.611ZM574.777 127.592C571.449 127.592 568.889 126.824 567.097 125.288C565.369 123.752 564.505 122.024 564.505 120.104C564.505 118.44 565.113 117 566.329 115.784C567.545 114.568 569.337 113.96 571.705 113.96C572.537 113.96 573.497 114.056 574.585 114.248C575.737 114.376 576.601 114.472 577.177 114.536C577.113 112.872 576.729 111.304 576.025 109.832C575.385 108.36 574.553 106.952 573.529 105.608C572.505 104.2 571.545 102.984 570.649 101.96C568.665 105.736 566.681 108.872 564.697 111.368C562.777 113.864 560.665 116.232 558.361 118.472C557.209 119.624 555.993 120.2 554.713 120.2C553.689 120.2 552.857 119.848 552.216 119.144C551.576 118.376 551.256 117.448 551.256 116.36C551.256 115.08 551.704 113.896 552.601 112.808L553.849 111.272C557.369 106.92 560.025 103.336 561.817 100.52C562.905 98.664 564.185 96.2 565.657 93.128C567.129 89.992 568.569 86.76 569.977 83.432C571.193 80.616 573.721 79.208 577.561 79.208C579.353 79.208 580.601 79.368 581.305 79.688C582.009 80.008 582.361 80.52 582.361 81.224C582.361 81.608 582.233 82.216 581.977 83.048C581.721 83.88 581.369 84.712 580.921 85.544C579.769 87.848 579.193 89.8 579.193 91.4C579.193 92.36 579.513 93.416 580.153 94.568C580.857 95.72 581.913 97.16 583.321 98.888C585.369 101.576 586.905 103.88 587.929 105.8C589.017 107.656 589.561 109.704 589.561 111.944C589.561 112.584 589.497 113.48 589.369 114.632C592.505 113.416 596.185 110.184 600.409 104.936C601.177 104.04 602.041 103.592 603 103.592C603.833 103.592 604.473 103.976 604.921 104.744C605.433 105.512 605.689 106.568 605.689 107.912C605.689 110.344 605.081 112.328 603.865 113.864C600.665 117.832 597.593 120.552 594.649 122.024C591.769 123.432 588.185 124.2 583.897 124.328C581.337 126.504 578.297 127.592 574.777 127.592ZM614.113 125.48C610.337 125.48 607.105 124.552 604.417 122.696C601.793 120.776 599.809 118.28 598.465 115.208C597.121 112.136 596.449 108.84 596.449 105.32C596.449 100.456 597.345 96.136 599.137 92.36C600.993 88.52 603.489 85.544 606.625 83.432C609.761 81.256 613.281 80.168 617.185 80.168C620.961 80.168 624.193 81.128 626.881 83.048C629.569 84.904 631.585 87.368 632.929 90.44C634.273 93.512 634.945 96.808 634.945 100.328C634.945 105.192 634.017 109.544 632.161 113.384C630.305 117.16 627.777 120.136 624.577 122.312C621.441 124.424 617.953 125.48 614.113 125.48ZM615.169 115.112C617.345 115.112 619.169 113.928 620.641 111.56C622.177 109.192 622.945 105.736 622.945 101.192C622.945 97.672 622.305 95.016 621.025 93.224C619.745 91.432 618.209 90.536 616.417 90.536C614.113 90.536 612.193 91.72 610.657 94.088C609.185 96.392 608.449 99.848 608.449 104.456C608.449 108.104 609.089 110.792 610.369 112.52C611.649 114.248 613.249 115.112 615.169 115.112Z" fill="#1C1C1C"/>
</svg>
