<svg width="223" height="32" webBox="0 0 223 32" fill="none" xmlns="http://www.w3.org/2000/svg">
<path d="M11.2776 19.4798C11.2776 21.1366 9.91131 22.5187 8.31295 22.0824C7.15072 21.7651 6.04076 21.2616 5.02818 20.5855C3.17834 19.3505 1.73657 17.595 0.885185 15.5412C0.0337993 13.4874 -0.188962 11.2274 0.245071 9.0471C0.679104 6.86677 1.75044 4.86401 3.32359 3.29209C4.89675 1.72016 6.90107 0.649665 9.0831 0.215971C11.2651 -0.217722 13.5269 0.00486531 15.5823 0.855586C17.6377 1.70631 19.3945 3.14695 20.6305 4.99534C21.3067 6.00651 21.8104 7.11486 22.128 8.2754C22.5653 9.8735 21.1831 11.2399 19.5263 11.2399L14.2776 11.2399C12.6208 11.2399 11.2776 12.583 11.2776 14.2399V19.4798Z" fill="#EE4266"/>
<path d="M25.1459 3C25.1459 1.34314 26.5122 -0.0390277 28.1106 0.397381C29.9811 0.908085 31.7048 1.8981 33.0999 3.29209C35.2094 5.39998 36.3946 8.25889 36.3946 11.2399C36.3946 14.2209 35.2094 17.0798 33.0999 19.1877C31.7048 20.5817 29.9811 21.5717 28.1106 22.0824C26.5123 22.5188 25.1459 21.1366 25.1459 19.4798L25.1459 11.2399V3Z" fill="#F2D23F"/>
<path d="M58.6656 11.2399C60.3224 11.2399 61.7047 12.6063 61.2673 14.2044C60.756 16.0726 59.7654 17.7942 58.3709 19.1877C56.2614 21.2956 53.4002 22.4798 50.4169 22.4798C47.4336 22.4798 44.5724 21.2956 42.4629 19.1877C41.0683 17.7942 40.0778 16.0726 39.5665 14.2044C39.1291 12.6063 40.5114 11.2399 42.1682 11.2399L50.4169 11.2399H58.6656Z" fill="#00FFAA"/>
<path d="M77.9045 23.0171C76.7751 23.0171 75.7778 22.7751 74.9125 22.2911C74.0471 21.8071 73.3725 21.1325 72.8885 20.2671C72.4045 19.4018 72.1625 18.3898 72.1625 17.2311C72.1625 15.9845 72.4045 14.9211 72.8885 14.0411C73.3871 13.1611 74.0251 12.4865 74.8025 12.0171C75.5945 11.5331 76.4305 11.2911 77.3105 11.2911C77.9558 11.2911 78.5791 11.4085 79.1805 11.6431C79.7965 11.8631 80.3391 12.2005 80.8085 12.6551C81.2925 13.0951 81.6738 13.6378 81.9525 14.2831C82.2458 14.9285 82.4071 15.6765 82.4365 16.5271C82.4218 16.7031 82.3485 16.8571 82.2165 16.9891C82.0845 17.1065 81.9305 17.1651 81.7545 17.1651H72.9325L72.6685 15.9771H81.3365L81.0505 16.2411V15.8011C80.9918 15.1118 80.7718 14.5251 80.3905 14.0411C80.0091 13.5571 79.5471 13.1905 79.0045 12.9411C78.4618 12.6918 77.8971 12.5671 77.3105 12.5671C76.8705 12.5671 76.4158 12.6551 75.9465 12.8311C75.4918 13.0071 75.0738 13.2858 74.6925 13.6671C74.3258 14.0338 74.0251 14.5105 73.7905 15.0971C73.5558 15.6691 73.4385 16.3511 73.4385 17.1431C73.4385 18.0085 73.6145 18.7931 73.9665 19.4971C74.3185 20.2011 74.8245 20.7585 75.4845 21.1691C76.1591 21.5798 76.9585 21.7851 77.8825 21.7851C78.3958 21.7851 78.8578 21.7118 79.2685 21.5651C79.6791 21.4185 80.0385 21.2278 80.3465 20.9931C80.6545 20.7438 80.9111 20.4871 81.1165 20.2231C81.2778 20.0911 81.4391 20.0251 81.6005 20.0251C81.7471 20.0251 81.8718 20.0838 81.9745 20.2011C82.0918 20.3185 82.1505 20.4505 82.1505 20.5971C82.1505 20.7731 82.0771 20.9271 81.9305 21.0591C81.4905 21.5871 80.9185 22.0491 80.2145 22.4451C79.5105 22.8265 78.7405 23.0171 77.9045 23.0171ZM94.4799 6.51712C94.6706 6.51712 94.8246 6.58312 94.9419 6.71512C95.0739 6.83245 95.1399 6.98645 95.1399 7.17712V22.1371C95.1399 22.3131 95.0739 22.4671 94.9419 22.5991C94.8099 22.7311 94.6559 22.7971 94.4799 22.7971C94.2893 22.7971 94.1279 22.7311 93.9959 22.5991C93.8786 22.4671 93.8199 22.3131 93.8199 22.1371V19.5191L94.1939 19.2111C94.1939 19.6218 94.0839 20.0545 93.8639 20.5091C93.6439 20.9491 93.3286 21.3598 92.9179 21.7411C92.5219 22.1225 92.0526 22.4305 91.5099 22.6651C90.9819 22.8998 90.4099 23.0171 89.7939 23.0171C88.8113 23.0171 87.9239 22.7605 87.1319 22.2471C86.3546 21.7338 85.7386 21.0371 85.2839 20.1571C84.8293 19.2771 84.6019 18.2725 84.6019 17.1431C84.6019 16.0285 84.8293 15.0311 85.2839 14.1511C85.7386 13.2565 86.3546 12.5598 87.1319 12.0611C87.9093 11.5478 88.7893 11.2911 89.7719 11.2911C90.3733 11.2911 90.9453 11.4011 91.4879 11.6211C92.0306 11.8411 92.5073 12.1418 92.9179 12.5231C93.3433 12.9045 93.6733 13.3445 93.9079 13.8431C94.1573 14.3271 94.2819 14.8331 94.2819 15.3611L93.8199 15.0311V7.17712C93.8199 7.00112 93.8786 6.84712 93.9959 6.71512C94.1279 6.58312 94.2893 6.51712 94.4799 6.51712ZM89.9039 21.7851C90.6959 21.7851 91.3853 21.5871 91.9719 21.1911C92.5733 20.7805 93.0426 20.2305 93.3799 19.5411C93.7319 18.8371 93.9079 18.0378 93.9079 17.1431C93.9079 16.2631 93.7319 15.4785 93.3799 14.7891C93.0426 14.0851 92.5733 13.5351 91.9719 13.1391C91.3706 12.7285 90.6813 12.5231 89.9039 12.5231C89.1413 12.5231 88.4519 12.7285 87.8359 13.1391C87.2346 13.5351 86.7579 14.0851 86.4059 14.7891C86.0686 15.4785 85.8999 16.2631 85.8999 17.1431C85.8999 18.0231 86.0686 18.8151 86.4059 19.5191C86.7579 20.2231 87.2346 20.7805 87.8359 21.1911C88.4519 21.5871 89.1413 21.7851 89.9039 21.7851ZM107.351 11.6211C107.542 11.6211 107.696 11.6871 107.813 11.8191C107.945 11.9511 108.011 12.1051 108.011 12.2811V18.4851C108.011 19.9371 107.601 21.0445 106.779 21.8071C105.958 22.5698 104.851 22.9511 103.457 22.9511C102.079 22.9511 100.979 22.5698 100.157 21.8071C99.3508 21.0445 98.9475 19.9371 98.9475 18.4851V12.2811C98.9475 12.1051 99.0061 11.9511 99.1235 11.8191C99.2555 11.6871 99.4168 11.6211 99.6075 11.6211C99.7981 11.6211 99.9521 11.6871 100.069 11.8191C100.201 11.9511 100.267 12.1051 100.267 12.2811V18.4851C100.267 19.5411 100.546 20.3478 101.103 20.9051C101.675 21.4478 102.46 21.7191 103.457 21.7191C104.469 21.7191 105.261 21.4478 105.833 20.9051C106.405 20.3478 106.691 19.5411 106.691 18.4851V12.2811C106.691 12.1051 106.75 11.9511 106.867 11.8191C106.985 11.6871 107.146 11.6211 107.351 11.6211ZM116.423 11.2911C117.127 11.2911 117.772 11.3718 118.359 11.5331C118.946 11.6798 119.415 11.8851 119.767 12.1491C120.134 12.4131 120.317 12.6991 120.317 13.0071C120.317 13.1538 120.266 13.3005 120.163 13.4471C120.06 13.5791 119.921 13.6451 119.745 13.6451C119.569 13.6451 119.422 13.6011 119.305 13.5131C119.202 13.4251 119.092 13.3225 118.975 13.2051C118.872 13.0878 118.718 12.9778 118.513 12.8751C118.322 12.7871 118.051 12.7065 117.699 12.6331C117.347 12.5598 116.944 12.5231 116.489 12.5231C115.668 12.5231 114.927 12.7285 114.267 13.1391C113.607 13.5498 113.086 14.1071 112.705 14.8111C112.324 15.5005 112.133 16.2778 112.133 17.1431C112.133 18.0231 112.316 18.8151 112.683 19.5191C113.05 20.2231 113.556 20.7805 114.201 21.1911C114.846 21.5871 115.602 21.7851 116.467 21.7851C117.054 21.7851 117.508 21.7338 117.831 21.6311C118.154 21.5285 118.432 21.4111 118.667 21.2791C118.946 21.1178 119.144 20.9638 119.261 20.8171C119.393 20.6558 119.562 20.5751 119.767 20.5751C119.958 20.5751 120.097 20.6338 120.185 20.7511C120.288 20.8538 120.339 20.9931 120.339 21.1691C120.339 21.4038 120.163 21.6678 119.811 21.9611C119.474 22.2398 119.004 22.4891 118.403 22.7091C117.802 22.9145 117.112 23.0171 116.335 23.0171C115.235 23.0171 114.267 22.7605 113.431 22.2471C112.61 21.7338 111.964 21.0371 111.495 20.1571C111.04 19.2625 110.813 18.2578 110.813 17.1431C110.813 16.0725 111.048 15.0971 111.517 14.2171C111.986 13.3371 112.639 12.6331 113.475 12.1051C114.326 11.5625 115.308 11.2911 116.423 11.2911ZM132.078 11.5551C132.268 11.5551 132.422 11.6211 132.54 11.7531C132.672 11.8851 132.738 12.0465 132.738 12.2371V22.1371C132.738 22.3131 132.672 22.4671 132.54 22.5991C132.408 22.7311 132.254 22.7971 132.078 22.7971C131.887 22.7971 131.726 22.7311 131.594 22.5991C131.476 22.4671 131.418 22.3131 131.418 22.1371V19.5191L131.792 19.3431C131.792 19.7538 131.674 20.1718 131.44 20.5971C131.22 21.0225 130.912 21.4185 130.516 21.7851C130.12 22.1518 129.65 22.4525 129.108 22.6871C128.58 22.9071 128.008 23.0171 127.392 23.0171C126.394 23.0171 125.5 22.7605 124.708 22.2471C123.93 21.7338 123.314 21.0298 122.86 20.1351C122.42 19.2405 122.2 18.2358 122.2 17.1211C122.2 15.9771 122.427 14.9725 122.882 14.1071C123.336 13.2271 123.952 12.5378 124.73 12.0391C125.507 11.5405 126.387 11.2911 127.37 11.2911C128 11.2911 128.587 11.4011 129.13 11.6211C129.687 11.8411 130.171 12.1418 130.582 12.5231C130.992 12.9045 131.308 13.3445 131.528 13.8431C131.762 14.3271 131.88 14.8331 131.88 15.3611L131.418 15.0311V12.2371C131.418 12.0465 131.476 11.8851 131.594 11.7531C131.726 11.6211 131.887 11.5551 132.078 11.5551ZM127.502 21.7851C128.279 21.7851 128.968 21.5871 129.57 21.1911C130.171 20.7805 130.64 20.2231 130.978 19.5191C131.33 18.8005 131.506 18.0011 131.506 17.1211C131.506 16.2558 131.33 15.4785 130.978 14.7891C130.64 14.0998 130.171 13.5498 129.57 13.1391C128.968 12.7285 128.279 12.5231 127.502 12.5231C126.739 12.5231 126.05 12.7211 125.434 13.1171C124.832 13.5131 124.356 14.0558 124.004 14.7451C123.666 15.4345 123.498 16.2265 123.498 17.1211C123.498 18.0011 123.666 18.8005 124.004 19.5191C124.356 20.2231 124.832 20.7805 125.434 21.1911C126.035 21.5871 126.724 21.7851 127.502 21.7851ZM135.68 11.3131C135.797 11.3131 135.914 11.3498 136.032 11.4231C136.149 11.4965 136.237 11.6065 136.296 11.7531L140.146 20.9051L139.86 21.0811L143.798 11.7531C143.915 11.4598 144.128 11.3205 144.436 11.3351C144.582 11.3351 144.722 11.3865 144.854 11.4891C144.986 11.5771 145.052 11.7091 145.052 11.8851C145.052 11.9731 145.037 12.0465 145.008 12.1051C144.993 12.1491 144.978 12.2005 144.964 12.2591L140.652 22.3791C140.534 22.6431 140.336 22.7825 140.058 22.7971C139.926 22.8118 139.794 22.7825 139.662 22.7091C139.544 22.6211 139.456 22.5111 139.398 22.3791L135.064 12.2591C135.049 12.2298 135.034 12.1858 135.02 12.1271C135.005 12.0685 134.998 12.0098 134.998 11.9511C134.998 11.7898 135.056 11.6431 135.174 11.5111C135.291 11.3791 135.46 11.3131 135.68 11.3131ZM152.563 23.0171C151.433 23.0171 150.436 22.7751 149.571 22.2911C148.705 21.8071 148.031 21.1325 147.547 20.2671C147.063 19.4018 146.821 18.3898 146.821 17.2311C146.821 15.9845 147.063 14.9211 147.547 14.0411C148.045 13.1611 148.683 12.4865 149.461 12.0171C150.253 11.5331 151.089 11.2911 151.969 11.2911C152.614 11.2911 153.237 11.4085 153.839 11.6431C154.455 11.8631 154.997 12.2005 155.467 12.6551C155.951 13.0951 156.332 13.6378 156.611 14.2831C156.904 14.9285 157.065 15.6765 157.095 16.5271C157.08 16.7031 157.007 16.8571 156.875 16.9891C156.743 17.1065 156.589 17.1651 156.413 17.1651H147.591L147.327 15.9771H155.995L155.709 16.2411V15.8011C155.65 15.1118 155.43 14.5251 155.049 14.0411C154.667 13.5571 154.205 13.1905 153.663 12.9411C153.12 12.6918 152.555 12.5671 151.969 12.5671C151.529 12.5671 151.074 12.6551 150.605 12.8311C150.15 13.0071 149.732 13.2858 149.351 13.6671C148.984 14.0338 148.683 14.5105 148.449 15.0971C148.214 15.6691 148.097 16.3511 148.097 17.1431C148.097 18.0085 148.273 18.7931 148.625 19.4971C148.977 20.2011 149.483 20.7585 150.143 21.1691C150.817 21.5798 151.617 21.7851 152.541 21.7851C153.054 21.7851 153.516 21.7118 153.927 21.5651C154.337 21.4185 154.697 21.2278 155.005 20.9931C155.313 20.7438 155.569 20.4871 155.775 20.2231C155.936 20.0911 156.097 20.0251 156.259 20.0251C156.405 20.0251 156.53 20.0838 156.633 20.2011C156.75 20.3185 156.809 20.4505 156.809 20.5971C156.809 20.7731 156.735 20.9271 156.589 21.0591C156.149 21.5871 155.577 22.0491 154.873 22.4451C154.169 22.8265 153.399 23.0171 152.563 23.0171ZM160.58 22.7971C160.375 22.7971 160.213 22.7311 160.096 22.5991C159.979 22.4671 159.92 22.3131 159.92 22.1371V12.2811C159.92 12.1051 159.979 11.9511 160.096 11.8191C160.228 11.6871 160.389 11.6211 160.58 11.6211C160.771 11.6211 160.925 11.6871 161.042 11.8191C161.174 11.9511 161.24 12.1051 161.24 12.2811V15.5811L160.91 15.6471C160.954 15.1338 161.079 14.6278 161.284 14.1291C161.504 13.6158 161.797 13.1465 162.164 12.7211C162.531 12.2958 162.963 11.9511 163.462 11.6871C163.975 11.4231 164.547 11.2911 165.178 11.2911C165.442 11.2911 165.699 11.3498 165.948 11.4671C166.197 11.5698 166.322 11.7458 166.322 11.9951C166.322 12.2151 166.263 12.3838 166.146 12.5011C166.029 12.6185 165.889 12.6771 165.728 12.6771C165.596 12.6771 165.449 12.6405 165.288 12.5671C165.141 12.4938 164.943 12.4571 164.694 12.4571C164.283 12.4571 163.873 12.5818 163.462 12.8311C163.051 13.0658 162.677 13.3885 162.34 13.7991C162.003 14.2098 161.731 14.6718 161.526 15.1851C161.335 15.6838 161.24 16.1898 161.24 16.7031V22.1371C161.24 22.3131 161.174 22.4671 161.042 22.5991C160.91 22.7311 160.756 22.7971 160.58 22.7971ZM167.747 21.0151C167.63 20.8391 167.571 20.6705 167.571 20.5091C167.586 20.3331 167.681 20.1938 167.857 20.0911C167.974 19.9885 168.106 19.9445 168.253 19.9591C168.414 19.9738 168.561 20.0471 168.693 20.1791C169.089 20.6925 169.566 21.1105 170.123 21.4331C170.695 21.7411 171.37 21.8951 172.147 21.8951C172.558 21.8951 172.961 21.8291 173.357 21.6971C173.768 21.5505 174.105 21.3378 174.369 21.0591C174.633 20.7658 174.765 20.3991 174.765 19.9591C174.765 19.5045 174.633 19.1378 174.369 18.8591C174.105 18.5805 173.76 18.3605 173.335 18.1991C172.924 18.0378 172.484 17.8985 172.015 17.7811C171.516 17.6491 171.032 17.5025 170.563 17.3411C170.094 17.1651 169.676 16.9525 169.309 16.7031C168.957 16.4391 168.671 16.1238 168.451 15.7571C168.231 15.3905 168.121 14.9431 168.121 14.4151C168.121 13.7991 168.29 13.2565 168.627 12.7871C168.964 12.3178 169.419 11.9511 169.991 11.6871C170.578 11.4231 171.238 11.2911 171.971 11.2911C172.338 11.2911 172.734 11.3425 173.159 11.4451C173.584 11.5331 174.002 11.6871 174.413 11.9071C174.824 12.1271 175.19 12.4278 175.513 12.8091C175.645 12.9411 175.711 13.0951 175.711 13.2711C175.711 13.4325 175.638 13.5791 175.491 13.7111C175.374 13.7991 175.234 13.8431 175.073 13.8431C174.926 13.8431 174.802 13.7845 174.699 13.6671C174.347 13.2711 173.929 12.9705 173.445 12.7651C172.961 12.5598 172.44 12.4571 171.883 12.4571C171.458 12.4571 171.054 12.5305 170.673 12.6771C170.306 12.8091 169.998 13.0145 169.749 13.2931C169.5 13.5718 169.375 13.9385 169.375 14.3931C169.404 14.8185 169.551 15.1631 169.815 15.4271C170.094 15.6911 170.453 15.9111 170.893 16.0871C171.348 16.2631 171.854 16.4245 172.411 16.5711C172.88 16.6885 173.328 16.8278 173.753 16.9891C174.193 17.1505 174.574 17.3558 174.897 17.6051C175.234 17.8398 175.498 18.1405 175.689 18.5071C175.894 18.8738 175.997 19.3358 175.997 19.8931C175.997 20.5385 175.814 21.0958 175.447 21.5651C175.095 22.0345 174.618 22.3938 174.017 22.6431C173.416 22.8925 172.748 23.0171 172.015 23.0171C171.223 23.0171 170.453 22.8631 169.705 22.5551C168.972 22.2471 168.319 21.7338 167.747 21.0151ZM189.169 17.1651C189.169 18.2798 188.927 19.2845 188.443 20.1791C187.959 21.0591 187.299 21.7558 186.463 22.2691C185.627 22.7678 184.674 23.0171 183.603 23.0171C182.562 23.0171 181.616 22.7678 180.765 22.2691C179.929 21.7558 179.262 21.0591 178.763 20.1791C178.279 19.2845 178.037 18.2798 178.037 17.1651C178.037 16.0358 178.279 15.0311 178.763 14.1511C179.262 13.2711 179.929 12.5745 180.765 12.0611C181.616 11.5478 182.562 11.2911 183.603 11.2911C184.674 11.2911 185.627 11.5478 186.463 12.0611C187.299 12.5745 187.959 13.2711 188.443 14.1511C188.927 15.0311 189.169 16.0358 189.169 17.1651ZM187.849 17.1651C187.849 16.2705 187.666 15.4785 187.299 14.7891C186.933 14.0851 186.427 13.5351 185.781 13.1391C185.151 12.7285 184.425 12.5231 183.603 12.5231C182.811 12.5231 182.093 12.7285 181.447 13.1391C180.802 13.5351 180.289 14.0851 179.907 14.7891C179.541 15.4785 179.357 16.2705 179.357 17.1651C179.357 18.0598 179.541 18.8518 179.907 19.5411C180.289 20.2305 180.802 20.7805 181.447 21.1911C182.093 21.5871 182.811 21.7851 183.603 21.7851C184.425 21.7851 185.151 21.5871 185.781 21.1911C186.427 20.7805 186.933 20.2305 187.299 19.5411C187.666 18.8518 187.849 18.0598 187.849 17.1651Z" fill="white"/>
</svg>